<svg width="244" height="239" viewBox="0 0 244 239" fill="none" xmlns="http://www.w3.org/2000/svg">
<path d="M128.248 0.164222C148.746 1.21912 168.641 7.33432 186.085 17.9424L166.818 48.4097C154.607 40.984 140.681 36.7034 126.332 35.965L128.248 0.164222Z" fill="#E38F30"/>
<path d="M185.796 17.7675C209.378 32.019 227.305 53.7239 236.623 79.3049C245.94 104.886 246.092 132.817 237.053 158.494C228.014 184.171 210.324 206.061 186.898 220.559C163.472 235.056 135.709 241.294 108.183 238.245C80.6578 235.196 55.0129 223.042 35.4751 203.786C15.9373 184.529 3.6727 159.32 0.702539 132.313C-2.26762 105.306 4.23394 78.1124 19.1357 55.2141C34.0375 32.3157 56.4501 15.0793 82.6799 6.34539L94.4344 40.2918C76.0736 46.4055 60.3847 58.471 49.9535 74.4998C39.5223 90.5287 34.9712 109.564 37.0503 128.469C39.1294 147.374 47.7146 165.021 61.3911 178.5C75.0675 191.979 93.0189 200.487 112.287 202.621C131.555 204.756 150.989 200.389 167.387 190.241C183.785 180.093 196.168 164.769 202.496 146.795C208.823 128.822 208.717 109.27 202.194 91.3634C195.672 73.4567 183.123 58.2633 166.616 48.2873L185.796 17.7675Z" fill="#0546B4"/>
<path d="M82.4816 6.41161C97.0166 1.54444 112.359 -0.584389 127.7 0.137241L125.949 35.9461C115.21 35.4409 104.47 36.9311 94.2956 40.3381L82.4816 6.41161Z" fill="#EEEEEE"/>
<path d="M116.335 218.008C116.764 218.001 117.171 218.054 117.556 218.169C117.94 218.284 118.275 218.456 118.558 218.684C118.852 218.913 119.081 219.193 119.245 219.527C119.418 219.85 119.509 220.222 119.516 220.642C119.526 221.221 119.389 221.704 119.107 222.091C118.824 222.479 118.46 222.751 118.014 222.908L118.015 222.936C118.277 222.997 118.522 223.1 118.748 223.246C118.974 223.382 119.173 223.556 119.345 223.768C119.517 223.97 119.651 224.201 119.749 224.461C119.856 224.72 119.912 225.004 119.917 225.312C119.926 225.807 119.84 226.247 119.66 226.633C119.489 227.009 119.247 227.33 118.934 227.597C118.631 227.864 118.27 228.066 117.852 228.204C117.435 228.341 116.988 228.414 116.512 228.422C116.036 228.43 115.587 228.373 115.165 228.249C114.743 228.126 114.371 227.936 114.049 227.68C113.737 227.424 113.484 227.111 113.291 226.741C113.107 226.361 113.011 225.924 113.002 225.43C112.997 225.112 113.043 224.818 113.141 224.545C113.239 224.273 113.371 224.033 113.535 223.824C113.709 223.616 113.907 223.445 114.129 223.31C114.35 223.166 114.582 223.06 114.823 222.99L114.823 222.962C114.372 222.811 113.999 222.561 113.704 222.211C113.408 221.862 113.256 221.397 113.246 220.819C113.239 220.399 113.312 220.02 113.465 219.681C113.627 219.333 113.846 219.04 114.122 218.802C114.407 218.554 114.735 218.362 115.106 218.225C115.487 218.088 115.896 218.015 116.335 218.008ZM116.358 219.394C115.938 219.401 115.595 219.533 115.329 219.789C115.072 220.046 114.947 220.389 114.954 220.818C114.961 221.219 115.093 221.558 115.35 221.833C115.616 222.109 115.968 222.243 116.407 222.235C116.603 222.232 116.789 222.191 116.965 222.114C117.141 222.036 117.293 221.931 117.421 221.798C117.55 221.665 117.65 221.509 117.721 221.331C117.793 221.152 117.827 220.965 117.824 220.769C117.82 220.554 117.775 220.364 117.688 220.197C117.61 220.021 117.501 219.874 117.359 219.755C117.226 219.636 117.07 219.545 116.892 219.483C116.723 219.42 116.545 219.391 116.358 219.394ZM116.431 223.663C116.188 223.667 115.96 223.713 115.747 223.801C115.543 223.888 115.363 224.008 115.207 224.16C115.06 224.302 114.942 224.482 114.852 224.698C114.772 224.905 114.734 225.134 114.738 225.386C114.747 225.909 114.917 226.312 115.249 226.596C115.58 226.879 115.993 227.017 116.488 227.009C116.973 227 117.377 226.849 117.698 226.554C118.02 226.259 118.176 225.85 118.167 225.328C118.163 225.085 118.113 224.862 118.016 224.658C117.928 224.445 117.804 224.265 117.643 224.119C117.491 223.972 117.307 223.858 117.091 223.778C116.884 223.697 116.664 223.659 116.431 223.663ZM126.506 218.087L124.035 221.797L124.049 221.811C124.179 221.753 124.342 221.708 124.537 221.677C124.742 221.645 124.928 221.628 125.096 221.625C125.535 221.618 125.947 221.695 126.333 221.856C126.718 222.008 127.058 222.227 127.352 222.511C127.646 222.786 127.876 223.118 128.041 223.508C128.215 223.887 128.306 224.301 128.314 224.749C128.323 225.272 128.238 225.749 128.058 226.182C127.879 226.614 127.629 226.987 127.307 227.301C126.995 227.605 126.616 227.84 126.171 228.006C125.735 228.181 125.266 228.273 124.762 228.282C124.239 228.291 123.757 228.215 123.316 228.055C122.874 227.885 122.487 227.649 122.155 227.346C121.823 227.044 121.561 226.689 121.367 226.281C121.183 225.865 121.086 225.418 121.078 224.942C121.073 224.662 121.092 224.401 121.135 224.157C121.177 223.904 121.239 223.665 121.319 223.44C121.408 223.205 121.511 222.97 121.629 222.735C121.755 222.499 121.896 222.254 122.05 221.999L124.463 218.122L126.506 218.087ZM122.787 224.955C122.791 225.216 122.837 225.463 122.925 225.695C123.023 225.927 123.157 226.13 123.328 226.304C123.499 226.479 123.702 226.615 123.937 226.714C124.172 226.812 124.434 226.859 124.723 226.854C125.293 226.845 125.747 226.66 126.086 226.299C126.434 225.929 126.604 225.45 126.594 224.862C126.589 224.582 126.538 224.327 126.441 224.095C126.353 223.854 126.223 223.65 126.052 223.485C125.881 223.32 125.678 223.193 125.444 223.104C125.218 223.005 124.965 222.958 124.685 222.963C124.405 222.967 124.145 223.018 123.904 223.116C123.672 223.213 123.469 223.352 123.295 223.532C123.129 223.703 123.002 223.911 122.913 224.155C122.824 224.399 122.782 224.666 122.787 224.955ZM135.975 225.403C135.969 225.039 136.029 224.702 136.154 224.392C136.289 224.072 136.471 223.793 136.7 223.556C136.938 223.309 137.21 223.118 137.516 222.982C137.831 222.837 138.171 222.761 138.534 222.755C138.898 222.749 139.236 222.813 139.546 222.948C139.865 223.073 140.144 223.255 140.381 223.494C140.628 223.723 140.819 223.995 140.955 224.31C141.101 224.615 141.176 224.95 141.182 225.314C141.189 225.678 141.124 226.02 140.99 226.34C140.864 226.65 140.682 226.928 140.444 227.175C140.215 227.412 139.943 227.604 139.628 227.749C139.322 227.885 138.987 227.956 138.623 227.962C138.259 227.968 137.917 227.909 137.598 227.783C137.288 227.649 137.009 227.467 136.763 227.238C136.525 226.999 136.334 226.727 136.189 226.421C136.052 226.106 135.981 225.767 135.975 225.403ZM139.839 225.337C139.833 224.982 139.706 224.686 139.459 224.447C139.213 224.209 138.912 224.093 138.557 224.099C138.203 224.105 137.906 224.231 137.668 224.478C137.429 224.725 137.313 225.025 137.319 225.38C137.325 225.735 137.451 226.031 137.698 226.27C137.945 226.508 138.246 226.624 138.6 226.618C138.955 226.612 139.251 226.486 139.49 226.239C139.728 225.992 139.845 225.692 139.839 225.337ZM129.198 220.477C129.192 220.113 129.252 219.776 129.377 219.466C129.512 219.147 129.694 218.868 129.923 218.631C130.162 218.384 130.434 218.193 130.739 218.057C131.054 217.911 131.394 217.836 131.758 217.829C132.122 217.823 132.459 217.888 132.769 218.022C133.089 218.147 133.367 218.329 133.605 218.568C133.851 218.797 134.042 219.069 134.179 219.384C134.324 219.69 134.399 220.025 134.406 220.389C134.412 220.753 134.348 221.095 134.213 221.414C134.088 221.724 133.906 222.003 133.667 222.25C133.438 222.487 133.166 222.678 132.851 222.824C132.545 222.959 132.21 223.03 131.846 223.037C131.482 223.043 131.141 222.983 130.821 222.858C130.511 222.723 130.232 222.541 129.986 222.312C129.748 222.074 129.557 221.801 129.412 221.496C129.276 221.181 129.205 220.841 129.198 220.477ZM133.062 220.412C133.056 220.057 132.929 219.76 132.683 219.522C132.436 219.283 132.135 219.167 131.781 219.173C131.426 219.179 131.129 219.306 130.891 219.552C130.652 219.799 130.536 220.1 130.542 220.454C130.548 220.809 130.675 221.106 130.921 221.344C131.168 221.583 131.469 221.699 131.823 221.693C132.178 221.687 132.475 221.56 132.713 221.314C132.952 221.067 133.068 220.766 133.062 220.412ZM137.422 217.453L138.593 217.965L132.945 228.339L131.774 227.827L137.422 217.453Z" fill="white"/>
<path d="M107.056 16.5418L104.819 20.3984L104.834 20.4113C104.96 20.3451 105.12 20.2904 105.313 20.247C105.515 20.2028 105.7 20.1741 105.868 20.1609C106.305 20.1262 106.721 20.1775 107.116 20.3148C107.51 20.4428 107.862 20.6395 108.174 20.9051C108.484 21.1614 108.734 21.4786 108.923 21.8569C109.121 22.2251 109.237 22.6325 109.273 23.0791C109.314 23.6001 109.259 24.082 109.107 24.5247C108.954 24.9675 108.728 25.3553 108.426 25.6881C108.133 26.0109 107.77 26.2691 107.336 26.4626C106.912 26.6647 106.449 26.7857 105.946 26.8255C105.425 26.8668 104.939 26.821 104.489 26.6882C104.038 26.546 103.637 26.3343 103.287 26.0531C102.937 25.7718 102.653 25.4339 102.434 25.0393C102.224 24.6346 102.101 24.195 102.063 23.7205C102.041 23.4413 102.044 23.179 102.071 22.9334C102.097 22.6785 102.144 22.4361 102.21 22.2061C102.284 21.9662 102.373 21.7251 102.476 21.4829C102.587 21.24 102.712 20.9866 102.851 20.7229L105.018 16.7032L107.056 16.5418ZM103.769 23.6274C103.79 23.888 103.851 24.1312 103.953 24.3572C104.065 24.5824 104.211 24.7768 104.393 24.9403C104.574 25.1038 104.785 25.2275 105.026 25.3114C105.267 25.3954 105.531 25.4259 105.82 25.4031C106.387 25.3581 106.829 25.1452 107.145 24.7644C107.47 24.3735 107.609 23.885 107.563 23.2988C107.541 23.0197 107.474 22.7675 107.363 22.5423C107.26 22.307 107.118 22.1123 106.937 21.9581C106.756 21.8038 106.546 21.6894 106.306 21.6148C106.075 21.5302 105.819 21.4989 105.54 21.521C105.261 21.5431 105.004 21.6103 104.77 21.7225C104.544 21.8339 104.35 21.9851 104.188 22.1759C104.033 22.3566 103.919 22.5716 103.846 22.8209C103.772 23.0702 103.746 23.339 103.769 23.6274ZM116.96 23.2566C116.931 22.8937 116.97 22.5536 117.076 22.2363C117.19 21.9089 117.354 21.6197 117.569 21.3686C117.791 21.1075 118.051 20.8997 118.348 20.7451C118.653 20.5805 118.987 20.4838 119.35 20.4551C119.713 20.4263 120.053 20.4696 120.371 20.5848C120.698 20.69 120.987 20.8544 121.239 21.0778C121.499 21.2913 121.707 21.551 121.863 21.857C122.026 22.153 122.123 22.4824 122.152 22.8453C122.18 23.2082 122.137 23.5533 122.023 23.8807C121.917 24.1981 121.753 24.4873 121.53 24.7483C121.316 24.9994 121.056 25.2072 120.751 25.3718C120.454 25.5264 120.124 25.6181 119.761 25.6468C119.398 25.6756 119.054 25.6373 118.727 25.5321C118.409 25.4169 118.12 25.2526 117.859 25.0391C117.608 24.8156 117.4 24.5559 117.236 24.2599C117.081 23.9539 116.989 23.6195 116.96 23.2566ZM120.812 22.9514C120.784 22.5979 120.639 22.3097 120.378 22.087C120.117 21.8642 119.81 21.7669 119.456 21.7949C119.103 21.8229 118.814 21.9674 118.592 22.2285C118.369 22.4896 118.272 22.7969 118.3 23.1505C118.328 23.504 118.472 23.7922 118.733 24.0149C118.994 24.2377 119.302 24.335 119.655 24.307C120.009 24.279 120.297 24.1345 120.52 23.8734C120.742 23.6123 120.84 23.305 120.812 22.9514ZM109.891 18.7608C109.862 18.3979 109.901 18.0578 110.006 17.7405C110.121 17.4131 110.285 17.1239 110.5 16.8728C110.722 16.6118 110.982 16.4039 111.279 16.2494C111.584 16.0847 111.918 15.988 112.281 15.9593C112.644 15.9306 112.984 15.9738 113.302 16.089C113.629 16.1942 113.918 16.3586 114.17 16.5821C114.43 16.7955 114.638 17.0552 114.793 17.3613C114.957 17.6572 115.054 17.9867 115.082 18.3495C115.111 18.7124 115.068 19.0575 114.954 19.3849C114.848 19.7023 114.684 19.9915 114.461 20.2526C114.247 20.5036 113.987 20.7114 113.682 20.876C113.385 21.0306 113.055 21.1223 112.692 21.151C112.329 21.1798 111.985 21.1416 111.658 21.0364C111.34 20.9211 111.051 20.7568 110.79 20.5433C110.539 20.3199 110.331 20.0601 110.167 19.7641C110.011 19.4581 109.919 19.1237 109.891 18.7608ZM113.743 18.4557C113.715 18.1021 113.57 17.814 113.309 17.5912C113.048 17.3685 112.741 17.2711 112.387 17.2991C112.033 17.3271 111.745 17.4717 111.523 17.7327C111.3 17.9938 111.202 18.3011 111.23 18.6547C111.259 19.0082 111.403 19.2964 111.664 19.5191C111.925 19.7419 112.233 19.8392 112.586 19.8112C112.94 19.7832 113.228 19.6387 113.451 19.3776C113.673 19.1165 113.771 18.8092 113.743 18.4557ZM117.911 15.2324L119.111 15.671L114.117 26.3748L112.917 25.9362L117.911 15.2324Z" fill="#0546B4"/>
<path d="M156.933 19.299C157.326 19.47 157.675 19.6873 157.977 19.951C158.28 20.2146 158.513 20.5092 158.677 20.8347C158.85 21.164 158.942 21.5143 158.954 21.8857C158.978 22.2522 158.906 22.6281 158.739 23.0134C158.509 23.5442 158.185 23.9276 157.767 24.1634C157.349 24.3992 156.905 24.4964 156.434 24.455L156.423 24.4807C156.637 24.6447 156.817 24.8398 156.963 25.066C157.113 25.2836 157.222 25.5243 157.29 25.7881C157.363 26.0433 157.39 26.3094 157.371 26.5863C157.361 26.8669 157.295 27.1485 157.173 27.431C156.976 27.8848 156.715 28.25 156.392 28.5267C156.08 28.7986 155.727 28.9912 155.332 29.1046C154.945 29.2216 154.534 29.2565 154.096 29.2091C153.659 29.1618 153.222 29.0433 152.785 28.8538C152.349 28.6643 151.964 28.426 151.63 28.1389C151.297 27.8518 151.037 27.5252 150.85 27.1591C150.672 26.7968 150.571 26.4072 150.548 25.9904C150.538 25.5688 150.631 25.1311 150.828 24.6773C150.955 24.3862 151.119 24.137 151.321 23.9296C151.523 23.7222 151.742 23.5577 151.978 23.4363C152.222 23.3185 152.473 23.2443 152.73 23.2136C152.992 23.1744 153.247 23.1731 153.495 23.2098L153.506 23.1841C153.159 22.8602 152.923 22.478 152.798 22.0374C152.674 21.5969 152.727 21.1112 152.958 20.5804C153.125 20.1951 153.348 19.8799 153.628 19.6349C153.919 19.385 154.24 19.2088 154.59 19.1062C154.952 18.9988 155.33 18.9595 155.724 18.9883C156.127 19.0208 156.53 19.1244 156.933 19.299ZM156.381 20.5704C155.995 20.4032 155.628 20.3813 155.28 20.5047C154.94 20.6318 154.684 20.8923 154.513 21.2861C154.354 21.6543 154.334 22.0169 154.453 22.3741C154.581 22.735 154.847 23.0028 155.249 23.1775C155.429 23.2555 155.615 23.2956 155.807 23.2977C156 23.2998 156.182 23.2669 156.354 23.1991C156.526 23.1313 156.681 23.0309 156.82 22.8979C156.959 22.765 157.068 22.6086 157.146 22.4288C157.232 22.2319 157.269 22.0397 157.259 21.8521C157.261 21.6597 157.222 21.48 157.142 21.313C157.07 21.1496 156.966 21.0027 156.83 20.8722C156.702 20.7453 156.552 20.6448 156.381 20.5704ZM154.681 24.4874C154.458 24.3908 154.231 24.3382 154.001 24.3298C153.779 24.3251 153.566 24.3597 153.361 24.4335C153.168 24.5025 152.986 24.6168 152.815 24.7766C152.656 24.9315 152.527 25.1245 152.426 25.3557C152.218 25.8351 152.207 26.2726 152.391 26.6681C152.575 27.0636 152.895 27.3598 153.348 27.5567C153.794 27.75 154.224 27.7789 154.638 27.6436C155.053 27.5082 155.365 27.2008 155.573 26.7214C155.669 26.4988 155.716 26.2747 155.712 26.0492C155.72 25.8188 155.682 25.6036 155.595 25.4034C155.518 25.207 155.397 25.0275 155.234 24.865C155.079 24.7061 154.895 24.5803 154.681 24.4874ZM164.173 30.8661C164.317 30.5322 164.511 30.25 164.754 30.0195C165.008 29.7842 165.289 29.6059 165.596 29.4848C165.915 29.3588 166.242 29.2972 166.577 29.3C166.924 29.2979 167.264 29.3693 167.598 29.5143C167.932 29.6592 168.212 29.8572 168.439 30.1082C168.678 30.3545 168.856 30.6353 168.974 30.9508C169.104 31.2615 169.165 31.5884 169.159 31.9315C169.164 32.2698 169.095 32.6059 168.95 32.9398C168.805 33.2737 168.605 33.5583 168.35 33.7936C168.108 34.0242 167.827 34.2024 167.508 34.3284C167.201 34.4495 166.874 34.5111 166.527 34.5132C166.193 34.5104 165.858 34.4366 165.524 34.2916C165.191 34.1467 164.904 33.9511 164.665 33.7049C164.438 33.4539 164.26 33.173 164.13 32.8624C164.013 32.5468 163.951 32.22 163.945 31.8817C163.952 31.5386 164.028 31.2 164.173 30.8661ZM167.717 32.4046C167.858 32.0793 167.866 31.757 167.74 31.4378C167.614 31.1186 167.388 30.8883 167.063 30.7471C166.738 30.6059 166.415 30.5983 166.096 30.7243C165.777 30.8503 165.547 31.0759 165.405 31.4013C165.264 31.7266 165.257 32.0489 165.383 32.3681C165.509 32.6873 165.734 32.9176 166.06 33.0588C166.385 33.2 166.707 33.2076 167.026 33.0816C167.346 32.9556 167.576 32.73 167.717 32.4046ZM160.041 23.5784C160.186 23.2445 160.379 22.9623 160.622 22.7318C160.877 22.4964 161.157 22.3182 161.464 22.197C161.784 22.0711 162.11 22.0094 162.445 22.0122C162.792 22.0101 163.132 22.0816 163.466 22.2265C163.8 22.3714 164.08 22.5694 164.307 22.8205C164.546 23.0667 164.724 23.3476 164.842 23.6631C164.972 23.9737 165.033 24.3006 165.027 24.6437C165.032 24.982 164.963 25.3181 164.818 25.652C164.673 25.9859 164.473 26.2705 164.218 26.5059C163.976 26.7364 163.695 26.9146 163.376 27.0406C163.069 27.1618 162.742 27.2234 162.395 27.2254C162.061 27.2227 161.726 27.1488 161.392 27.0039C161.059 26.859 160.772 26.6634 160.533 26.4172C160.306 26.1661 160.128 25.8853 159.998 25.5746C159.881 25.2591 159.819 24.9322 159.813 24.5939C159.82 24.2508 159.896 23.9123 160.041 23.5784ZM163.585 25.1169C163.726 24.7915 163.734 24.4692 163.608 24.15C163.482 23.8308 163.256 23.6006 162.931 23.4594C162.606 23.3182 162.283 23.3105 161.964 23.4365C161.645 23.5625 161.415 23.7882 161.273 24.1135C161.132 24.4388 161.125 24.7611 161.251 25.0804C161.377 25.3996 161.602 25.6298 161.928 25.771C162.253 25.9122 162.575 25.9198 162.894 25.7939C163.214 25.6679 163.444 25.4422 163.585 25.1169ZM168.779 24.2272L169.633 25.1779L160.199 32.2853L159.345 31.3347L168.779 24.2272Z" fill="white"/>
</svg>
