<svg width="28" height="28" viewBox="0 0 28 28" fill="none" xmlns="http://www.w3.org/2000/svg">
<path d="M5.02344 5.48644C5.02344 4.87232 5.25561 4.27317 5.66752 3.82382C6.13185 3.31454 6.79091 3.02246 7.48742 3.02246H10.7902C12.0409 3.02246 13.0969 3.95862 13.2317 5.20185C13.3141 5.9358 13.4639 6.65477 13.6811 7.35877C13.9507 8.23501 13.7185 9.17867 13.0744 9.82275L11.7339 11.1633C13.1343 13.7247 15.2763 15.8666 17.8376 17.2671L19.1782 15.9265C19.8223 15.2824 20.7659 15.0503 21.6422 15.3199C22.3462 15.5371 23.0652 15.6869 23.7991 15.7692C25.0348 15.9041 25.971 16.9526 25.971 18.2033V21.5061C25.971 22.1951 25.6789 22.8541 25.1697 23.326C24.6604 23.7903 23.9714 24.0225 23.2749 23.9625C20.9008 23.7454 18.6165 23.1163 16.4746 22.0977C14.3926 21.1016 12.5052 19.7685 10.8651 18.1359C9.22494 16.4957 7.89184 14.6084 6.90325 12.5264C5.88471 10.3844 5.25561 8.09272 5.03842 5.7261C5.02344 5.63623 5.02344 5.56133 5.02344 5.48644ZM12.1533 8.08523C12.1533 8.00285 12.1383 7.92046 12.1158 7.83808C11.8687 7.03673 11.6964 6.2129 11.6065 5.38159C11.5616 4.96968 11.2096 4.65513 10.7902 4.65513H7.47993C7.24776 4.65513 7.03057 4.75249 6.87329 4.92474C6.71602 5.097 6.64113 5.32917 6.66359 5.56133C7.47993 14.4586 14.5348 21.5135 23.4321 22.3299C23.6718 22.3523 23.8965 22.2775 24.0687 22.1127C24.241 21.9554 24.3383 21.7382 24.3383 21.5061V18.2033C24.3383 17.7839 24.0238 17.4319 23.6119 17.3869C22.7806 17.2971 21.9567 17.1248 21.1629 16.8777C20.8633 16.7878 20.5488 16.8627 20.3316 17.0799L18.1522 19.2593L17.6279 18.9971C14.3401 17.3645 11.6365 14.6533 9.99633 11.3655L9.73421 10.8413L11.9136 8.6619C12.0709 8.50463 12.1533 8.29493 12.1533 8.08523Z" fill="white"/>
</svg>
