<svg width="235" height="206" viewBox="0 0 235 206" fill="none" xmlns="http://www.w3.org/2000/svg">
<path d="M78.1728 71.4711C81.1339 71.4711 83.5467 73.888 83.5467 76.8542V95.1642H52.7658V71.4711H78.1728ZM78.1728 67.3818H48.6836V99.2535H87.6289V76.8542C87.6289 71.6176 83.3883 67.3818 78.1728 67.3818Z" fill="#0546B4" fill-opacity="0.3"/>
<path d="M83.5467 111.814V201.911H58.1396C55.1785 201.911 52.7658 199.494 52.7658 196.528V111.814H83.5467ZM87.6289 107.725H48.6836V196.528C48.6836 201.753 52.912 206.001 58.1396 206.001H87.6289V107.725Z" fill="#0546B4" fill-opacity="0.3"/>
<path d="M34.8631 71.4711V95.1642H4.08219V76.8542C4.08219 73.888 6.49494 71.4711 9.45605 71.4711H34.8631ZM38.9453 67.3818H9.45605C4.22842 67.3818 0 71.6176 0 76.8542V99.2535H38.9453V67.3818Z" fill="#0546B4" fill-opacity="0.3"/>
<path d="M34.8631 111.814V196.528C34.8631 199.494 32.4503 201.911 29.4892 201.911H4.08219V111.814H34.8631ZM38.9453 107.725H0V205.988H29.4892C34.7169 205.988 38.9453 201.753 38.9453 196.516V107.725Z" fill="#0546B4" fill-opacity="0.3"/>
<path d="M230.918 120.236V145.687C230.918 148.653 228.505 151.07 225.544 151.07H207.266V120.236H230.918ZM235 116.146H203.184V155.159H225.544C230.772 155.159 235 150.923 235 145.687V116.146Z" fill="#0546B4" fill-opacity="0.3"/>
<path d="M190.645 120.236V151.07H100.703V125.619C100.703 122.653 103.116 120.236 106.077 120.236H190.645ZM194.715 116.146H106.077C100.862 116.146 96.6211 120.382 96.6211 125.619V155.159H194.715V116.146Z" fill="#0546B4" fill-opacity="0.3"/>
<path d="M230.918 71.4711V96.922C230.918 99.8882 228.505 102.305 225.544 102.305H207.266V71.4711H230.918ZM235 67.3818H203.184V106.394H225.544C230.772 106.394 235 102.159 235 96.922V67.3818Z" fill="#0546B4" fill-opacity="0.3"/>
<path d="M190.645 71.4711V102.305H100.703V76.8542C100.703 73.888 103.116 71.4711 106.077 71.4711H190.645ZM194.715 67.3818H106.077C100.862 67.3818 96.6211 71.6176 96.6211 76.8542V106.394H194.715V67.3818Z" fill="#0546B4" fill-opacity="0.3"/>
<path d="M129.324 4.08924V34.9233H105.672V9.47239C105.672 6.50616 108.085 4.08924 111.046 4.08924H129.324ZM133.407 0H111.046C105.818 0 101.59 4.23572 101.59 9.47239V39.0126H133.407V0Z" fill="#0546B4" fill-opacity="0.3"/>
<path d="M94.0244 23.5951V54.4292H4.08219V28.9782C4.08219 26.012 6.49494 23.5951 9.45605 23.5951H94.0244ZM98.0944 19.5059H9.45605C4.22842 19.5059 0 23.7416 0 28.9782V58.5184H98.0944V19.5059Z" fill="#0546B4" fill-opacity="0.3"/>
<path d="M225.861 23.8519C228.823 23.8519 231.235 26.2689 231.235 29.2351V54.686H141.293V23.8519H225.861ZM225.861 19.7627H137.211V58.7753H235.305V29.2351C235.317 23.9984 231.077 19.7627 225.861 19.7627Z" fill="#0546B4" fill-opacity="0.3"/>
</svg>
